Coordinates
version=1
nRows=21
nColumns=12
inDegrees=yes

Units are S.I. units (second, meters, Newtons, ...)
Angles are in degrees

endheader
time	SC_y	SC_z	SC_x	AC_y	AC_z	AC_x	GH_y	GH_z	GH_yy	EL_x	PS_y
       0.0              -49.54          28.04          14.39          55.69          5.619          14.55           92.6          50.06         -20.37          114.1          26.37
   0.01261              -49.54          28.04           14.4          55.69          5.616          14.55          92.57          50.06         -20.37          114.1          26.39
   0.02522              -49.53          28.03          14.41          55.69          5.613          14.54          92.53          50.07         -20.37          114.1          26.41
   0.03783              -49.53          28.03          14.42          55.69           5.61          14.54          92.48          50.07         -20.38          114.1          26.43
   0.05045              -49.52          28.02          14.43          55.68          5.606          14.54          92.44          50.07         -20.38          114.1          26.45
   0.06306              -49.51          28.02          14.44          55.68          5.602          14.54          92.39          50.08         -20.38          114.1          26.47
   0.07567              -49.51          28.01          14.45          55.68          5.598          14.54          92.34          50.08         -20.39          114.1           26.5
   0.08828               -49.5           28.0          14.46          55.68          5.594          14.54          92.29          50.09         -20.39          114.1          26.52
    0.1009              -49.49           28.0          14.47          55.68           5.59          14.53          92.23          50.09         -20.39          114.1          26.55
    0.1135              -49.48          27.99          14.48          55.68          5.585          14.53          92.16           50.1          -20.4          114.1          26.58
    0.1261              -49.47          27.98           14.5          55.68           5.58          14.53           92.1           50.1          -20.4          114.1          26.62
    0.1387              -49.46          27.97          14.51          55.68          5.574          14.53          92.02          50.11         -20.41          114.1          26.65
    0.1513              -49.45          27.96          14.53          55.67          5.568          14.52          91.95          50.12         -20.41          114.1          26.69
     0.164              -49.44          27.95          14.54          55.67          5.561          14.52          91.86          50.12         -20.42          114.1          26.73
    0.1766              -49.42          27.94          14.56          55.67          5.554          14.52          91.77          50.13         -20.42          114.1          26.78
    0.1892              -49.41          27.93          14.58          55.67          5.547          14.51          91.67          50.14         -20.43          114.0          26.83
    0.2018              -49.39          27.92           14.6          55.67          5.538          14.51          91.56          50.15         -20.44          114.0          26.88
    0.2144              -49.38           27.9          14.63          55.66          5.529          14.51          91.45          50.16         -20.45          114.0          26.94
     0.227              -49.36          27.89          14.65          55.66          5.519           14.5          91.32          50.17         -20.46          114.0           27.0
    0.2396              -49.34          27.87          14.68          55.66          5.509           14.5          91.18          50.18         -20.46          114.0          27.07
    0.2522              -49.32          27.85          14.71          55.65          5.497          14.49          91.02          50.19         -20.48          114.0          27.15
